<svg width="512" height="513" viewBox="0 0 512 513" fill="none" xmlns="http://www.w3.org/2000/svg">
    <path d="M32 5.5H480C494.912 5.5 507 17.5883 507 32.5V480.5C507 495.412 494.912 507.5 480 507.5H32C17.0883 507.5 5 495.412 5 480.5V32.5C5 17.5883 17.0883 5.5 32 5.5Z" fill="white" stroke="black" stroke-width="10"/>
    <path d="M68 41H444C458.912 41 471 53.0883 471 68V444C471 458.912 458.912 471 444 471H68C53.0883 471 41 458.912 41 444V68C41 53.0883 53.0883 41 68 41Z" stroke="black" stroke-width="10"/>
    <path d="M250.855 345H205.543L274.586 145H329.078L398.023 345H352.711L302.613 190.703H301.051L250.855 345ZM248.023 266.387H355.055V299.395H248.023V266.387Z" fill="black"/>
    <path d="M169.461 145H211.258V284.453C211.258 297.344 208.361 308.542 202.566 318.047C196.837 327.552 188.862 334.876 178.641 340.02C168.419 345.163 156.538 347.734 142.996 347.734C130.952 347.734 120.014 345.618 110.184 341.387C100.418 337.09 92.6706 330.579 86.9414 321.855C81.2122 313.066 78.3802 302.031 78.4453 288.75H120.535C120.665 294.023 121.74 298.548 123.758 302.324C125.841 306.035 128.673 308.9 132.254 310.918C135.9 312.871 140.197 313.848 145.145 313.848C150.353 313.848 154.747 312.741 158.328 310.527C161.974 308.249 164.741 304.928 166.629 300.566C168.517 296.204 169.461 290.833 169.461 284.453V145Z" fill="black"/>
    <path d="M425.668 145V345H383.383V145H425.668Z" fill="black"/>
</svg>
