<svg xmlns="http://www.w3.org/2000/svg" width="512" height="512"
     viewBox="0 0 512 512">
    <!-- Border -->
    <rect x="32" y="32" width="448" height="448" rx="64"
          fill="none" stroke="#FFFFFF" stroke-width="32" stroke-linejoin="round"/>

    <!-- Glyphs -->
    <g fill="#FFFFFF">
        <path d="M250.855 345H205.543L274.586 145H329.078L398.023 345H352.711L302.613 190.703H301.051L250.855 345ZM248.023 266.387H355.055V299.395H248.023V266.387Z"/>
        <path d="M169.461 145H211.258V284.453C211.258 297.344 208.361 308.542 202.566 318.047C196.837 327.552 188.862 334.876 178.641 340.02C168.419 345.163 156.538 347.734 142.996 347.734C130.952 347.734 120.014 345.618 110.184 341.387C100.418 337.09 92.671 330.579 86.941 321.855C81.212 313.066 78.380 302.031 78.445 288.75H120.535C120.665 294.023 121.740 298.548 123.758 302.324C125.841 306.035 128.673 308.9 132.254 310.918C135.900 312.871 140.197 313.848 145.145 313.848C150.353 313.848 154.747 312.741 158.328 310.527C161.974 308.249 164.741 304.928 166.629 300.566C168.517 296.204 169.461 290.833 169.461 284.453V145Z"/>
        <path d="M425.668 145V345H383.383V145H425.668Z"/>
    </g>
</svg>
